<svg id="Layer_1" enable-background="new 0 0 510 510" height="512" viewBox="0 0 510 510" width="512" xmlns="http://www.w3.org/2000/svg"><path d="m390 213.016v-48.016c0-33.084-26.916-60-60-60h-30v-105h-300v300h105v30c0 33.084 26.916 60 60 60h48.016c13.936 68.384 74.545 120 146.984 120 82.71 0 150-67.29 150-150 0-72.439-51.616-133.048-120-146.984zm-285-48.016v105h-75v-240h240v75h-105c-33.084 0-60 26.916-60 60zm60 195c-16.542 0-30-13.458-30-30v-165c0-16.542 13.458-30 30-30h165c16.542 0 30 13.458 30 30v45c-82.71 0-150 67.29-150 150zm195 120c-66.689 0-120-54.379-120-120 0-70.762 61.479-127.074 133.152-119.276 60.003 6.572 106.848 57.552 106.848 119.276 0 66.168-53.832 120-120 120z"/></svg>